<svg width="61" height="25" viewBox="0 0 61 25" fill="none" xmlns="http://www.w3.org/2000/svg">
<path fill-rule="evenodd" clip-rule="evenodd" d="M28.7448 1.11724C29.638 2.01042 29.3966 3.6999 28.2057 4.8908C27.0148 6.0817 25.3254 6.32305 24.4322 5.42988C23.539 4.5367 23.7804 2.84722 24.9713 1.65632C26.1622 0.465419 27.8516 0.224065 28.7448 1.11724ZM16.5732 0.840837L20.8998 0.826825L20.9742 23.8126L16.6477 23.8266L16.5732 0.840837ZM24.4536 7.47597H28.7801V23.8195H24.4536V7.47597ZM11.8074 15.0711C10.9878 14.6042 9.98719 14.2325 8.78644 13.9466C7.91923 13.7084 7.23309 13.4892 6.71848 13.2891C6.20387 13.089 5.84174 12.8698 5.63209 12.6411C5.41291 12.4123 5.30808 12.155 5.30808 11.8691C5.30808 11.4403 5.48914 11.0972 5.8608 10.8495C6.23246 10.6017 6.7566 10.4778 7.44274 10.4778C8.05265 10.4778 8.75785 10.6112 9.54882 10.8685C10.3398 11.1354 11.0545 11.4975 11.693 11.974L13.8372 9.0388C12.9986 8.41937 12.0266 7.94288 10.9116 7.60934C9.80612 7.2758 8.67208 7.10426 7.52851 7.10426C6.23246 7.10426 5.08889 7.31392 4.10733 7.73323C3.12576 8.15254 2.35385 8.72432 1.77254 9.44859C1.20075 10.1729 0.914858 11.021 0.914858 11.974C0.914858 12.9555 1.14357 13.7751 1.601 14.4422C2.05843 15.1093 2.72551 15.662 3.59272 16.0908C4.45993 16.5197 5.5082 16.8913 6.72801 17.1963C7.54757 17.4345 8.18606 17.6442 8.66255 17.8252C9.12951 18.0063 9.46305 18.1969 9.65365 18.397C9.84424 18.5972 9.93954 18.8545 9.93954 19.1689C9.93954 19.674 9.71083 20.0647 9.2534 20.3697C8.79597 20.6651 8.18606 20.8176 7.41415 20.8176C6.54694 20.8176 5.66068 20.6365 4.75535 20.2839C3.85002 19.9218 2.99235 19.4262 2.17279 18.7782L0 21.7801C1.14357 22.5901 2.33479 23.1905 3.5546 23.5908C4.77441 23.9815 6.06093 24.1816 7.41415 24.1816C9.606 24.1816 11.3023 23.7146 12.5126 22.7712C13.7229 21.8277 14.3232 20.5984 14.3232 19.0736C14.3232 18.1874 14.104 17.425 13.6752 16.7674C13.2464 16.1004 12.6269 15.5381 11.8074 15.0711ZM56.9496 8.2383C58.1885 8.99115 59.1796 10.0108 59.9038 11.2974C60.6281 12.5839 60.9902 14.0324 60.9998 15.6143C60.9998 15.8628 60.982 16.1203 60.9636 16.3866L60.9616 16.4148C60.9426 16.6912 60.9045 16.9294 60.8568 17.1486H48.5634C48.6683 17.5298 48.8112 17.8919 49.0018 18.2255C49.4116 18.9688 49.9738 19.5501 50.679 19.979C51.3747 20.4078 52.1847 20.627 53.0901 20.627C53.9192 20.627 54.6911 20.4936 55.3963 20.2172C56.0919 19.9408 56.759 19.512 57.3785 18.9116L59.8085 21.5609C58.9318 22.4281 57.9312 23.0761 56.8067 23.5145C55.6822 23.9529 54.4814 24.1721 53.1949 24.1721C51.5272 24.1721 50.0215 23.8004 48.6873 23.0475C47.3532 22.2947 46.3049 21.275 45.5425 19.9885C44.7801 18.702 44.3989 17.263 44.3989 15.662C44.3989 14.061 44.7611 12.6125 45.5044 11.3164C46.2382 10.0108 47.2388 8.99115 48.5062 8.2383C49.7737 7.48545 51.1746 7.11379 52.7279 7.11379C54.3003 7.11379 55.7107 7.48545 56.9496 8.2383ZM48.9256 13.0699C48.7731 13.3748 48.6492 13.7084 48.5634 14.0515H56.9115C56.8162 13.6893 56.6923 13.3558 56.5208 13.0318C56.1396 12.3075 55.625 11.7167 54.9674 11.2783C54.3099 10.8399 53.557 10.6207 52.6993 10.6207C51.8893 10.6207 51.146 10.8399 50.4789 11.2783C49.8118 11.7262 49.2972 12.317 48.9256 13.0699ZM42.1596 19.4358C41.4448 19.9694 40.7491 20.2363 40.0916 20.2363C39.3959 20.2363 38.8623 19.998 38.462 19.5215C38.0713 19.045 37.8712 18.3875 37.8712 17.5584V11.2306H42.8838V7.4759H37.8807V2.07253L33.7638 3.61635V7.4759H30.7715V11.2306H33.5446V17.6346C33.5446 19.6835 34.0688 21.2845 35.1171 22.4472C36.1653 23.6003 37.6424 24.1816 39.5484 24.1816C40.4347 24.1816 41.3019 24.0196 42.1786 23.6956C42.9029 23.4287 43.5509 23.0475 44.1417 22.5615C44.2561 22.4662 44.38 22.3614 44.4848 22.247L42.4073 19.2452C42.3311 19.3119 42.2453 19.3786 42.1596 19.4358Z" fill="#2F2F30"/>
</svg>
